<svg xmlns="http://www.w3.org/2000/svg" xmlns:xlink="http://www.w3.org/1999/xlink" width="1920" height="913" version="1.1" viewBox="0 0 1920 913"><defs><linearGradient id="linearGradient-1" x1="102.512%" x2="-1.994%" y1="57.5%" y2="100%"><stop offset="0%" stop-color="#FFF"/><stop offset="100%" stop-color="#FAFFFF"/></linearGradient><linearGradient id="linearGradient-2" x1="87.715%" x2="56.236%" y1="50%" y2="68.605%"><stop offset="0%" stop-color="#FFF"/><stop offset="100%" stop-color="#FFF" stop-opacity=".315"/></linearGradient><path id="path-3" d="M1966.72233,442.242555 C1985.89289,390.447748 1961.1254,328.99151 1911.3854,304.9679 L1722.56195,213.769254 L1025.29667,798.844292 L1190.15439,999.105724 L1731.84416,844.475172 C1784.95288,829.314778 1843.54918,775.030462 1862.71737,723.242056 L1966.72233,442.242555 Z"/><filter id="filter-4" width="175.1%" height="190.7%" x="-22.6%" y="-53.2%" filterUnits="objectBoundingBox"><feOffset dx="142" dy="-62" in="SourceAlpha" result="shadowOffsetOuter1"/><feGaussianBlur in="shadowOffsetOuter1" result="shadowBlurOuter1" stdDeviation="95"/><feColorMatrix in="shadowBlurOuter1" type="matrix" values="0 0 0 0 0 0 0 0 0 0 0 0 0 0 0 0 0 0 0.5 0"/></filter><path id="path-5" d="M1188.07081,1287.96059 C1207.24137,1236.16578 1183.06671,1173.49765 1134.083,1147.99146 L213.623985,668.701529 L824.579271,1726.90713 L953.194106,1690.19279 C1006.30201,1675.03262 1064.89766,1620.74849 1084.06585,1568.96009 L1188.07081,1287.96059 Z"/><filter id="filter-6" width="172.6%" height="167.3%" x="-21.8%" y="-39.5%" filterUnits="objectBoundingBox"><feOffset dx="142" dy="-62" in="SourceAlpha" result="shadowOffsetOuter1"/><feGaussianBlur in="shadowOffsetOuter1" result="shadowBlurOuter1" stdDeviation="95"/><feColorMatrix in="shadowBlurOuter1" type="matrix" values="0 0 0 0 0 0 0 0 0 0 0 0 0 0 0 0 0 0 0.5 0"/></filter></defs><g id="Desing" fill="none" fill-rule="evenodd" stroke="none" stroke-width="1"><g id="2-PricingPage"><g id="01-Header" transform="translate(-66.000000, -446.000000)"><g id="Group"><polygon id="bg" fill="url(#linearGradient-1)" points="1986 446 66 446 66 1356.559 1986 1356.559"/><g id="Shape" opacity=".031" transform="translate(1499.252253, 606.437489) scale(-1, 1) rotate(40.000000) translate(-1499.252253, -606.437489)"><use fill="#000" fill-opacity="1" filter="url(#filter-4)" xlink:href="#path-3"/><use fill="url(#linearGradient-2)" fill-rule="evenodd" xlink:href="#path-3"/></g><g id="Shape" opacity=".031" transform="translate(704.134996, 1197.804328) scale(-1, 1) rotate(-60.000000) translate(-704.134996, -1197.804328)"><use fill="#000" fill-opacity="1" filter="url(#filter-6)" xlink:href="#path-5"/><use fill="url(#linearGradient-2)" fill-rule="evenodd" xlink:href="#path-5"/></g></g></g></g></g></svg>